<svg width="40" height="40" viewBox="0 0 40 40" fill="none" xmlns="http://www.w3.org/2000/svg">
<rect width="40" height="40" fill="#011620"/>
<path d="M10.625 13.75C10.625 13.5428 10.7073 13.3441 10.8538 13.1976C11.0003 13.0511 11.199 12.9688 11.4062 12.9688H28.5938C28.801 12.9688 28.9997 13.0511 29.1462 13.1976C29.2927 13.3441 29.375 13.5428 29.375 13.75C29.375 13.9572 29.2927 14.1559 29.1462 14.3024C28.9997 14.4489 28.801 14.5312 28.5938 14.5312H11.4062C11.199 14.5312 11.0003 14.4489 10.8538 14.3024C10.7073 14.1559 10.625 13.9572 10.625 13.75ZM11.4062 20.7812H28.5938C28.801 20.7812 28.9997 20.6989 29.1462 20.5524C29.2927 20.4059 29.375 20.2072 29.375 20C29.375 19.7928 29.2927 19.5941 29.1462 19.4476C28.9997 19.3011 28.801 19.2188 28.5938 19.2188H11.4062C11.199 19.2188 11.0003 19.3011 10.8538 19.4476C10.7073 19.5941 10.625 19.7928 10.625 20C10.625 20.2072 10.7073 20.4059 10.8538 20.5524C11.0003 20.6989 11.199 20.7812 11.4062 20.7812ZM21.5625 25.4688H11.4062C11.199 25.4688 11.0003 25.5511 10.8538 25.6976C10.7073 25.8441 10.625 26.0428 10.625 26.25C10.625 26.4572 10.7073 26.6559 10.8538 26.8024C11.0003 26.9489 11.199 27.0312 11.4062 27.0312H21.5625C21.7697 27.0312 21.9684 26.9489 22.1149 26.8024C22.2614 26.6559 22.3438 26.4572 22.3438 26.25C22.3438 26.0428 22.2614 25.8441 22.1149 25.6976C21.9684 25.5511 21.7697 25.4688 21.5625 25.4688ZM30.1562 25.4688H28.5938V23.9062C28.5938 23.699 28.5114 23.5003 28.3649 23.3538C28.2184 23.2073 28.0197 23.125 27.8125 23.125C27.6053 23.125 27.4066 23.2073 27.2601 23.3538C27.1136 23.5003 27.0312 23.699 27.0312 23.9062V25.4688H25.4688C25.2615 25.4688 25.0628 25.5511 24.9163 25.6976C24.7698 25.8441 24.6875 26.0428 24.6875 26.25C24.6875 26.4572 24.7698 26.6559 24.9163 26.8024C25.0628 26.9489 25.2615 27.0312 25.4688 27.0312H27.0312V28.5938C27.0312 28.801 27.1136 28.9997 27.2601 29.1462C27.4066 29.2927 27.6053 29.375 27.8125 29.375C28.0197 29.375 28.2184 29.2927 28.3649 29.1462C28.5114 28.9997 28.5938 28.801 28.5938 28.5938V27.0312H30.1562C30.3635 27.0312 30.5622 26.9489 30.7087 26.8024C30.8552 26.6559 30.9375 26.4572 30.9375 26.25C30.9375 26.0428 30.8552 25.8441 30.7087 25.6976C30.5622 25.5511 30.3635 25.4688 30.1562 25.4688Z" fill="#95EEFD"/>
</svg>
