<?xml version="1.0" encoding="utf-8"?>
<!-- Generator: Adobe Illustrator 19.1.0, SVG Export Plug-In . SVG Version: 6.00 Build 0)  -->
<svg version="1.1" id="Layer_1" xmlns="http://www.w3.org/2000/svg" xmlns:xlink="http://www.w3.org/1999/xlink" x="0px" y="0px"
	 width="292px" height="122px" viewBox="0 0 292 122" style="enable-background:new 0 0 292 122;" xml:space="preserve">
<style type="text/css">
	.st0{fill-rule:evenodd;clip-rule:evenodd;}
	.st1{fill:#FFDD00;}
	.st2{fill-rule:evenodd;clip-rule:evenodd;fill:#FFDD00;}
</style>
<g>
	<g>
		<path class="st0" d="M111.1,72.6c0-7.1,1.9-12.1,10.5-12.1c2.7,0,5.1,0.6,6.9,1.7l-2.9,4.1c-1-0.6-2.4-1-4.2-1c-3.5,0-5,1.6-5,7.3
			c0,5.7,1.4,7.4,5,7.4c1.8,0,3-0.4,4.5-1.2l2.6,3.8c-2,1.2-4,1.8-7.4,1.8C113.4,84.6,111.1,79.9,111.1,72.6z"/>
		<path class="st0" d="M140.7,75.4c0-3.2-0.3-5-3.3-5s-3.3,1.8-3.3,5c0,3.1,0.3,5,3.3,5S140.7,78.5,140.7,75.4z M128.8,75.3
			c0-5.6,1.7-9.3,8.5-9.3c6.9,0,8.5,3.7,8.5,9.3c0,5.8-1.6,9.3-8.5,9.3C130.6,84.6,128.8,80.9,128.8,75.3z"/>
		<path class="st0" d="M147.5,66.6l4.1-0.3l0.4,1.4c0.9-1.1,2.6-1.7,5.9-1.7c4.7,0,5.7,2.8,5.7,6.5v11.8h-5.2V73.7
			c0-2.1-0.3-3.2-2.5-3.2c-2.8,0-3.2,1.2-3.2,3.8v9.9h-5.1V66.6z"/>
		<path class="st0" d="M164.4,83.2l2-3.7c1.4,0.6,3.5,1.2,5.6,1.2c1.5,0,2.1-0.4,2.1-1.4c0-1.1-0.6-1.3-3.8-2.3
			c-3.5-1.1-5.3-2.2-5.3-5.5c0-4.1,3-5.5,7.2-5.5c2.8,0,4.3,0.3,6,0.9l-2,4c-1.2-0.5-2.6-0.8-4.2-0.8c-1.7,0-2.1,0.4-2.1,1.3
			c0,0.9,0.6,1.2,3.4,2c3.9,1.2,5.6,2.2,5.6,5.8c0,3.7-2.5,5.3-7,5.3C169.2,84.5,166.4,84.2,164.4,83.2z"/>
		<path class="st0" d="M179.3,66.3h3.3l0.8-4l4.1-0.8v4.9h4.4v4.2h-4.4v7.8c0,1.3,0.2,1.9,2.2,1.9h2.2v4.2c-0.9,0.1-2.1,0.2-2.9,0.2
			c-5.2,0-6.7-1.6-6.7-5.7v-8.3h-3V66.3z"/>
		<path class="st0" d="M193.6,66.6l4.1-0.3l0.4,1.7c0.8-1,2.2-1.8,5.4-1.8v4.5c-4.4,0-4.7,2-4.7,4.6v9h-5.2V66.6z"/>
		<path class="st0" d="M204.7,76.9V66.3h5.2v10.4c0,2.5,0.1,3.6,2.8,3.6c2.6,0,2.8-1.1,2.8-3.6V66.3h5.1v10.6c0,5.4-1.5,7.6-7.9,7.6
			C206.4,84.6,204.7,82.4,204.7,76.9z"/>
		<path class="st0" d="M221.9,75.3c0-5.8,1.5-9.3,8.4-9.3c2.5,0,4.1,0.4,5.4,0.9l-2.3,4.2c-0.8-0.4-1.7-0.6-2.8-0.6
			c-2.6,0-3.4,1.3-3.4,5c0,3.6,0.8,5,3.6,5c1.3,0,2.3-0.4,3.3-0.7l1.9,3.7c-2,0.9-3.6,1.2-5.9,1.2C223.5,84.6,221.9,81.1,221.9,75.3
			z"/>
		<path class="st0" d="M236.4,66.3h3.3l0.8-4l4.1-0.8v4.9h4.4v4.2h-4.4v7.8c0,1.3,0.2,1.9,2.2,1.9h2.2v4.2c-0.9,0.1-2.1,0.2-2.9,0.2
			c-5.2,0-6.7-1.6-6.7-5.7v-8.3h-3V66.3z"/>
		<path class="st0" d="M250.7,66.3h5.2v18h-5.2V66.3z M250.7,60.3h5.2v4.4h-5.2V60.3z"/>
		<path class="st0" d="M269.2,75.4c0-3.2-0.3-5-3.3-5s-3.3,1.8-3.3,5c0,3.1,0.3,5,3.3,5S269.2,78.5,269.2,75.4z M257.3,75.3
			c0-5.6,1.7-9.3,8.5-9.3c6.9,0,8.5,3.7,8.5,9.3c0,5.8-1.6,9.3-8.5,9.3C259.1,84.6,257.3,80.9,257.3,75.3z"/>
		<path class="st0" d="M276,66.6l4.1-0.3l0.4,1.4c0.9-1.1,2.6-1.7,5.9-1.7c4.8,0,5.7,2.8,5.7,6.5v11.8h-5.2V73.7
			c0-2.1-0.3-3.2-2.5-3.2c-2.8,0-3.2,1.2-3.2,3.8v9.9H276V66.6z"/>
		<polygon class="st0" points="112.2,90.1 117.8,90.1 126,103.6 126,90.1 131.1,90.1 131.1,113.5 126.2,113.5 117.2,98.9 
			117.2,113.5 112.2,113.5 		"/>
		<path class="st0" d="M137.8,103h6.1c-0.1-2.4-0.2-3.5-2.9-3.5C138.5,99.4,137.9,100.6,137.8,103z M132.8,104.5
			c0-5.7,1.8-9.2,8.3-9.2c7.6,0,7.4,4.8,7.3,11.4h-10.6c0.2,2.1,0.9,3,3.5,3c2.6,0,3.8-0.5,5.1-1l1.9,3.6c-1.8,0.9-4,1.5-7.3,1.5
			C134.2,113.7,132.8,110.3,132.8,104.5z"/>
		<polygon class="st0" points="148.7,95.6 153.9,95.6 156.3,106.1 159.1,95.6 163.8,95.6 166.6,105.9 168.9,95.6 173.9,95.6 
			169.2,113.6 164.2,113.6 161.3,103.6 158.5,113.6 153.4,113.6 		"/>
		<path class="st0" d="M173.5,112.4l2-3.7c1.4,0.6,3.5,1.2,5.6,1.2c1.5,0,2.1-0.4,2.1-1.4c0-1-0.6-1.3-3.7-2.3
			c-3.5-1.1-5.3-2.1-5.3-5.4c0-4.1,2.9-5.5,7.2-5.5c2.7,0,4.2,0.3,6,0.9l-2,3.9c-1.2-0.4-2.6-0.8-4.2-0.8c-1.7,0-2.1,0.4-2.1,1.3
			s0.6,1.2,3.3,2c3.9,1.2,5.6,2.2,5.6,5.7c0,3.7-2.5,5.3-6.9,5.3C178.2,113.7,175.5,113.3,173.5,112.4z"/>
	</g>
	<polygon class="st1" points="103.2,11.9 0.1,55 0.1,51.8 103.2,8.6 	"/>
	<polygon class="st1" points="103.2,3.3 0.1,46.5 0.1,43.2 103.2,0 	"/>
	<path class="st2" d="M0,60.4v55.6c0,0-0.8,6.1,5.6,6.1h92.1c5.4,0,5.4-5.7,5.4-5.7v-99L0,60.4z"/>
	<polygon points="94.6,113.8 83.4,113.8 62.8,80.4 62.8,113.8 51.3,113.8 51.3,60.3 64.1,60.3 83,91.2 83,60.3 94.6,60.3 	"/>
	<path d="M30.1,114.5c-17.9,0-23-10.6-23-27.4c0-16.3,4.4-27.5,24-27.5c6.1,0,11.5,1.4,15.6,3.9l-6.5,9.4c-2.3-1.4-5.5-2.2-9.5-2.2
		c-8,0-11.3,3.5-11.3,16.7c0,12.9,3.1,16.9,11.3,16.9c4.1,0,6.9-0.8,10.2-2.7l6,8.7C42.3,113,37.8,114.5,30.1,114.5z"/>
</g>
</svg>
