<svg width="31" height="31" viewBox="0 0 31 31" fill="none" xmlns="http://www.w3.org/2000/svg">
<path d="M25.1875 3.875H22.2812V2.90625C22.2812 2.64932 22.1792 2.40292 21.9975 2.22124C21.8158 2.03956 21.5694 1.9375 21.3125 1.9375C21.0556 1.9375 20.8092 2.03956 20.6275 2.22124C20.4458 2.40292 20.3438 2.64932 20.3438 2.90625V3.875H10.6562V2.90625C10.6562 2.64932 10.5542 2.40292 10.3725 2.22124C10.1908 2.03956 9.94443 1.9375 9.6875 1.9375C9.43057 1.9375 9.18417 2.03956 9.00249 2.22124C8.82081 2.40292 8.71875 2.64932 8.71875 2.90625V3.875H5.8125C5.29864 3.875 4.80583 4.07913 4.44248 4.44248C4.07913 4.80583 3.875 5.29864 3.875 5.8125V25.1875C3.875 25.7014 4.07913 26.1942 4.44248 26.5575C4.80583 26.9209 5.29864 27.125 5.8125 27.125H25.1875C25.7014 27.125 26.1942 26.9209 26.5575 26.5575C26.9209 26.1942 27.125 25.7014 27.125 25.1875V5.8125C27.125 5.29864 26.9209 4.80583 26.5575 4.44248C26.1942 4.07913 25.7014 3.875 25.1875 3.875ZM8.71875 5.8125V6.78125C8.71875 7.03818 8.82081 7.28458 9.00249 7.46626C9.18417 7.64794 9.43057 7.75 9.6875 7.75C9.94443 7.75 10.1908 7.64794 10.3725 7.46626C10.5542 7.28458 10.6562 7.03818 10.6562 6.78125V5.8125H20.3438V6.78125C20.3438 7.03818 20.4458 7.28458 20.6275 7.46626C20.8092 7.64794 21.0556 7.75 21.3125 7.75C21.5694 7.75 21.8158 7.64794 21.9975 7.46626C22.1792 7.28458 22.2812 7.03818 22.2812 6.78125V5.8125H25.1875V9.6875H5.8125V5.8125H8.71875ZM25.1875 25.1875H5.8125V11.625H25.1875V25.1875ZM16.9531 15.9844C16.9531 16.2718 16.8679 16.5527 16.7082 16.7917C16.5486 17.0307 16.3216 17.2169 16.0561 17.3269C15.7906 17.4369 15.4984 17.4656 15.2165 17.4096C14.9346 17.3535 14.6757 17.2151 14.4725 17.0119C14.2693 16.8087 14.1309 16.5497 14.0748 16.2679C14.0187 15.986 14.0475 15.6938 14.1575 15.4283C14.2675 15.1628 14.4537 14.9358 14.6927 14.7761C14.9317 14.6165 15.2126 14.5312 15.5 14.5312C15.8854 14.5312 16.255 14.6843 16.5275 14.9569C16.8 15.2294 16.9531 15.599 16.9531 15.9844ZM22.2812 15.9844C22.2812 16.2718 22.196 16.5527 22.0364 16.7917C21.8767 17.0307 21.6497 17.2169 21.3842 17.3269C21.1187 17.4369 20.8265 17.4656 20.5446 17.4096C20.2628 17.3535 20.0038 17.2151 19.8006 17.0119C19.5974 16.8087 19.459 16.5497 19.4029 16.2679C19.3469 15.986 19.3756 15.6938 19.4856 15.4283C19.5956 15.1628 19.7818 14.9358 20.0208 14.7761C20.2598 14.6165 20.5407 14.5312 20.8281 14.5312C21.2135 14.5312 21.5831 14.6843 21.8556 14.9569C22.1282 15.2294 22.2812 15.599 22.2812 15.9844ZM11.625 20.8281C11.625 21.1155 11.5398 21.3965 11.3801 21.6354C11.2204 21.8744 10.9935 22.0607 10.728 22.1706C10.4624 22.2806 10.1703 22.3094 9.88838 22.2533C9.60651 22.1973 9.34758 22.0589 9.14436 21.8556C8.94114 21.6524 8.80274 21.3935 8.74667 21.1116C8.6906 20.8297 8.71938 20.5376 8.82936 20.272C8.93935 20.0065 9.1256 19.7796 9.36456 19.6199C9.60353 19.4602 9.88447 19.375 10.1719 19.375C10.5573 19.375 10.9269 19.5281 11.1994 19.8006C11.4719 20.0731 11.625 20.4427 11.625 20.8281ZM16.9531 20.8281C16.9531 21.1155 16.8679 21.3965 16.7082 21.6354C16.5486 21.8744 16.3216 22.0607 16.0561 22.1706C15.7906 22.2806 15.4984 22.3094 15.2165 22.2533C14.9346 22.1973 14.6757 22.0589 14.4725 21.8556C14.2693 21.6524 14.1309 21.3935 14.0748 21.1116C14.0187 20.8297 14.0475 20.5376 14.1575 20.272C14.2675 20.0065 14.4537 19.7796 14.6927 19.6199C14.9317 19.4602 15.2126 19.375 15.5 19.375C15.8854 19.375 16.255 19.5281 16.5275 19.8006C16.8 20.0731 16.9531 20.4427 16.9531 20.8281ZM22.2812 20.8281C22.2812 21.1155 22.196 21.3965 22.0364 21.6354C21.8767 21.8744 21.6497 22.0607 21.3842 22.1706C21.1187 22.2806 20.8265 22.3094 20.5446 22.2533C20.2628 22.1973 20.0038 22.0589 19.8006 21.8556C19.5974 21.6524 19.459 21.3935 19.4029 21.1116C19.3469 20.8297 19.3756 20.5376 19.4856 20.272C19.5956 20.0065 19.7818 19.7796 20.0208 19.6199C20.2598 19.4602 20.5407 19.375 20.8281 19.375C21.2135 19.375 21.5831 19.5281 21.8556 19.8006C22.1282 20.0731 22.2812 20.4427 22.2812 20.8281Z" fill="#CFF8FF"/>
</svg>
