<svg width="31" height="31" viewBox="0 0 31 31" fill="none" xmlns="http://www.w3.org/2000/svg">
<path d="M10.6562 13.5625C10.6562 13.3056 10.7583 13.0592 10.94 12.8775C11.1217 12.6958 11.3681 12.5938 11.625 12.5938H21.3125C21.5694 12.5938 21.8158 12.6958 21.9975 12.8775C22.1792 13.0592 22.2812 13.3056 22.2812 13.5625C22.2812 13.8194 22.1792 14.0658 21.9975 14.2475C21.8158 14.4292 21.5694 14.5312 21.3125 14.5312H11.625C11.3681 14.5312 11.1217 14.4292 10.94 14.2475C10.7583 14.0658 10.6562 13.8194 10.6562 13.5625ZM11.625 18.4062H21.3125C21.5694 18.4062 21.8158 18.3042 21.9975 18.1225C22.1792 17.9408 22.2812 17.6944 22.2812 17.4375C22.2812 17.1806 22.1792 16.9342 21.9975 16.7525C21.8158 16.5708 21.5694 16.4688 21.3125 16.4688H11.625C11.3681 16.4688 11.1217 16.5708 10.94 16.7525C10.7583 16.9342 10.6562 17.1806 10.6562 17.4375C10.6562 17.6944 10.7583 17.9408 10.94 18.1225C11.1217 18.3042 11.3681 18.4062 11.625 18.4062ZM28.0938 7.75V22.2812C28.0938 23.052 27.7876 23.7913 27.2425 24.3363C26.6975 24.8813 25.9583 25.1875 25.1875 25.1875H3.875C3.10652 25.1875 2.36931 24.8831 1.82467 24.341C1.28002 23.7988 0.972272 23.063 0.96875 22.2946V10.6562C0.96875 10.3993 1.07081 10.1529 1.25249 9.97124C1.43417 9.78956 1.68057 9.6875 1.9375 9.6875C2.19443 9.6875 2.44083 9.78956 2.62251 9.97124C2.80419 10.1529 2.90625 10.3993 2.90625 10.6562V22.2812C2.90625 22.5382 3.00831 22.7846 3.18999 22.9663C3.37167 23.1479 3.61807 23.25 3.875 23.25C4.13193 23.25 4.37833 23.1479 4.56001 22.9663C4.74169 22.7846 4.84375 22.5382 4.84375 22.2812V7.75C4.84375 7.23614 5.04788 6.74333 5.41123 6.37998C5.77458 6.01663 6.26739 5.8125 6.78125 5.8125H26.1562C26.6701 5.8125 27.1629 6.01663 27.5263 6.37998C27.8896 6.74333 28.0938 7.23614 28.0938 7.75ZM26.1562 7.75H6.78125V22.2812C6.78173 22.6113 6.72562 22.9389 6.61535 23.25H25.1875C25.4444 23.25 25.6908 23.1479 25.8725 22.9663C26.0542 22.7846 26.1562 22.5382 26.1562 22.2812V7.75Z" fill="#CFF8FF"/>
</svg>
