<svg width="31" height="31" viewBox="0 0 31 31" fill="none" xmlns="http://www.w3.org/2000/svg">
<path d="M16.9531 21.7969C16.9531 22.0843 16.8679 22.3652 16.7082 22.6042C16.5486 22.8432 16.3216 23.0294 16.0561 23.1394C15.7906 23.2494 15.4984 23.2781 15.2165 23.2221C14.9346 23.166 14.6757 23.0276 14.4725 22.8244C14.2693 22.6212 14.1309 22.3622 14.0748 22.0804C14.0187 21.7985 14.0475 21.5063 14.1575 21.2408C14.2675 20.9753 14.4537 20.7483 14.6927 20.5886C14.9317 20.429 15.2126 20.3438 15.5 20.3438C15.8854 20.3438 16.255 20.4968 16.5275 20.7694C16.8 21.0419 16.9531 21.4115 16.9531 21.7969ZM15.5 8.71875C12.8287 8.71875 10.6563 10.6744 10.6563 13.0781V13.5625C10.6563 13.8194 10.7583 14.0658 10.94 14.2475C11.1217 14.4292 11.3681 14.5312 11.625 14.5312C11.8819 14.5312 12.1283 14.4292 12.31 14.2475C12.4917 14.0658 12.5938 13.8194 12.5938 13.5625V13.0781C12.5938 11.7461 13.8979 10.6562 15.5 10.6562C17.1021 10.6562 18.4063 11.7461 18.4063 13.0781C18.4063 14.4102 17.1021 15.5 15.5 15.5C15.2431 15.5 14.9967 15.6021 14.815 15.7837C14.6333 15.9654 14.5313 16.2118 14.5313 16.4688V17.4375C14.5313 17.6944 14.6333 17.9408 14.815 18.1225C14.9967 18.3042 15.2431 18.4062 15.5 18.4062C15.7569 18.4062 16.0033 18.3042 16.185 18.1225C16.3667 17.9408 16.4688 17.6944 16.4688 17.4375V17.3503C18.6775 16.9446 20.3438 15.1827 20.3438 13.0781C20.3438 10.6744 18.1713 8.71875 15.5 8.71875ZM28.0938 15.5C28.0938 17.9908 27.3551 20.4257 25.9713 22.4967C24.5875 24.5677 22.6206 26.1819 20.3194 27.1351C18.0182 28.0883 15.486 28.3377 13.0431 27.8518C10.6001 27.3658 8.35615 26.1664 6.59488 24.4051C4.83361 22.6439 3.63417 20.3999 3.14824 17.9569C2.66231 15.514 2.91171 12.9818 3.8649 10.6806C4.81809 8.37937 6.43226 6.4125 8.50329 5.02868C10.5743 3.64486 13.0092 2.90625 15.5 2.90625C18.839 2.90978 22.0402 4.23775 24.4012 6.59877C26.7623 8.95979 28.0902 12.161 28.0938 15.5ZM26.1563 15.5C26.1563 13.3924 25.5313 11.3321 24.3604 9.5797C23.1894 7.82729 21.5252 6.46146 19.578 5.65491C17.6308 4.84836 15.4882 4.63733 13.4211 5.04851C11.354 5.45968 9.4552 6.47459 7.9649 7.96489C6.4746 9.4552 5.45969 11.354 5.04851 13.4211C4.63734 15.4882 4.84837 17.6308 5.65491 19.578C6.46146 21.5251 7.8273 23.1894 9.57971 24.3603C11.3321 25.5313 13.3924 26.1562 15.5 26.1562C18.3252 26.153 21.0338 25.0293 23.0316 23.0316C25.0293 21.0338 26.1531 18.3252 26.1563 15.5Z" fill="#CFF8FF"/>
</svg>
