<?xml version="1.0" encoding="utf-8"?>
<!-- Generator: Adobe Illustrator 19.1.0, SVG Export Plug-In . SVG Version: 6.00 Build 0)  -->
<svg version="1.1" id="Layer_1" xmlns="http://www.w3.org/2000/svg" xmlns:xlink="http://www.w3.org/1999/xlink" x="0px" y="0px"
	 width="235px" height="90px" viewBox="0 0 235 90" style="enable-background:new 0 0 235 90;" xml:space="preserve">
<style type="text/css">
	.st0{fill-rule:evenodd;clip-rule:evenodd;fill:#FFFFFF;}
	.st1{fill:#00AECA;}
	.st2{fill-rule:evenodd;clip-rule:evenodd;fill:#00AECA;}
</style>
<g>
	<path class="st0" d="M146.6,5c0-3.3,2.6-5,6.3-5c3.8,0,6.3,1.3,6.3,4.8s-2.5,5-6.3,5C149.3,9.8,146.6,8.3,146.6,5z M116.1,33.3h0.9
		c4.2,7.8,8.7,10.9,13.6,10.9c3.2,0,5.1-1.8,5.1-4.7c0-3-1.7-4.3-9.1-6.5c-7.4-2.2-10.5-4.5-10.5-9.8c0-6.7,5.2-11,13.2-11
		c4.6,0,8.8,0.5,12.3,1.6v9.4h-0.8c-3.5-6.5-7-9.6-11.5-9.6c-2.9,0-4.9,2-4.9,5.1c0,2.8,3.1,4.1,7.4,5.1c7.6,1.9,11.9,4.5,11.9,10.5
		c0,6.5-5.8,11.3-13.9,11.3c-5.2,0-12.1-1.6-13.8-2.7V33.3z M10.3,9.6v23.3c0,7.1,2.6,10.3,9.6,11v1H0v-1c6.5-0.8,8.6-3.9,8.6-11
		V10.3c0-4-1.7-7.5-6.9-7.8V1.6h15.9l26.1,29.5V13.4c0-6.9-2.8-10.2-9.8-10.9V1.6H54v0.9c-6.5,0.9-8.5,4-8.5,10.9v32h-4.1L10.3,9.6z
		 M142.8,44c4-0.1,5-0.7,5-2.4v-24c0-2.1-1.2-3.3-4.7-3.4v-0.8l15.3-0.9v29.2c0.1,2,2.1,2.2,3.8,2.2c1.7,0,3.7-0.2,3.9-2.3v-0.4
		V17.5c0-2.1-0.8-3.3-4.7-3.4v-0.8l15.3-0.8V19c2.9-4.1,7.5-6.8,11.9-6.8c6.2,0,8.8,3.7,8.8,10.3v19c0,1.6,0.7,2.4,4.6,2.4v0.9
		h-18.9v-0.9c2.4,0,3.5-0.7,3.5-2.4V22.7c0-3.6-1.3-5.8-4.4-5.8c-2.1,0-3.8,1.4-5.5,3.5v21.1c0,1.6,1,2.4,3.4,2.4v0.9h-37.4V44z
		 M82.4,41.3c0,2.3,2.1,2.6,3.8,2.6c1.7,0,3.7-0.2,3.9-2.3V17.5c0-2.1-0.8-3.3-4.7-3.4v-0.8l15.3-0.8V19c1.4-3.2,4.5-6.7,8.5-6.7
		c4,0,6.3,2.6,6.3,6.3c0,3.5-2.3,6.1-5.7,6.1c-3.5,0-5.7-2.7-5.7-5.7c0-0.4,0.1-1.1,0.3-1.8c-1.3,0.4-2.5,1.4-3.6,3.3v21.2
		c0,1.6,1.1,2.2,6.4,2.4v0.9H71.8v-6.2c-2.7,4.4-6.6,6.7-10.8,6.7c-6,0-9.8-3.5-9.8-10.5V17c0-2.1-0.8-3.3-4.7-3.4v-0.8l15.4-0.3
		v22.2c0,3.7,1.4,5.9,4.6,5.9c2.1,0,3.5-1.1,5.2-3.3V17c0-2.1-1-3.2-4.7-3.3v-0.9l15.4-0.3V41.3z"/>
	<path class="st0" d="M216.4,64.1c-7.7,0-11.7-4.1-11.7-9.6c0-4.4,2.2-6.5,4-7.8h0.8h9.3c5.7,0,9.4,2.8,9.4,7.2
		C228.1,60,222.9,64.1,216.4,64.1z M215.6,13.5c3.6,0,4.7,3.5,4.7,9.5c0,6.7-0.7,9.5-4.1,9.5c-3.5,0-4.8-2.8-4.8-9.5
		C211.4,16.2,212.1,13.5,215.6,13.5z M220.6,38.6h-7.1c-4.1,0-5.8-0.7-5.8-2.1c0-1.4,1.1-2.3,3.8-3c1.3,0.2,2.8,0.3,4.4,0.3
		c8.5,0,14.6-4.2,14.6-10.9c0-4.4-2.7-7.5-6.8-9.2c0.9-1.7,2.4-3.1,3.8-3.7c0,2.6,2,4.1,3.8,4.1c2.4,0,3.7-1.7,3.7-3.7
		c0-2.3-1.6-4.1-4.4-4.1c-3.8,0-6.6,3-8.2,6.8c-2-0.6-4.2-1-6.5-1c-8.5,0-14.6,4.2-14.6,10.9c0,4.2,2.3,8.2,8.1,9.8
		c-5.3,1.1-8.2,3.5-8.2,6.8c0,2.3,1.8,5.8,6,6.6v0.1c-5.5,0.9-9.3,4.2-9.3,8.1c0,6.5,7.4,10.8,17.5,10.8c10.8,0,19.4-6.3,19.4-14.8
		C234.9,42.7,229.4,38.6,220.6,38.6z"/>
	<path class="st1" d="M61.8,85.7v0.4c0.1,2,2.1,2.2,3.8,2.2c1.7,0,3.7-0.2,3.9-2.3v-0.4V61.9c0-2.1-0.7-3.3-4.6-3.4v-0.8l15.2-0.9
		v6.6c2.9-4.1,6.9-6.9,11.4-6.9c5.1,0,7.9,2.6,8.7,7.2c2.7-4.1,7.3-7.2,11.6-7.2c6.1,0,9,3.7,9,10.4v18.9c0,1.7,0.7,2.4,4.6,2.4v0.8
		H107v-0.8c2.4-0.1,3.1-0.7,3.1-2.4V67.1c0-3.6-1.2-5.8-4.3-5.8c-1.5,0-3.6,1.7-5.3,4c0.1,0.6,0.1,1.1,0.1,1.8v18.9
		c0,1.7,0.7,2.4,3,2.4v0.8H86.7v-0.8c2.4-0.1,3.1-0.7,3.1-2.4V67.1c0-3.6-1.5-5.8-4.6-5.8c-2.1,0-3.2,1.4-4.9,3.5v21.1
		c0,1.7,0.7,2.4,3,2.4v0.8h-37v-0.8c4-0.1,5-0.7,5-2.4v-24c0-2.1-1.2-3.3-4.7-3.4v-0.8l15.3-0.9V85.7z"/>
	<path class="st1" d="M10.5,88.2c6.1-0.2,7.9-1.1,7.9-3.6V47.9H17C11.7,47.9,7.6,52,2.8,62l-1.1-0.2V46.7h43.8v15.1L44.3,62
		C39.5,52,36,47.9,30.6,47.9h-1.3v36.8c0,2.4,2.1,3.4,8.2,3.6v1H10.5V88.2z"/>
	<path class="st1" d="M156.8,77.7h0.9c4.2,7.8,8.7,10.9,13.6,10.9c3.2,0,5.1-1.8,5.1-4.7c0-3-1.7-4.3-9.1-6.5
		c-7.4-2.2-10.5-4.5-10.5-9.7c0-6.7,5.2-11,13.2-11c4.6,0,8.8,0.5,12.3,1.6v9.4h-0.8c-3.5-6.5-7-9.6-11.5-9.6c-2.9,0-4.9,2-4.9,5.1
		c0,2.8,3.1,4.1,7.4,5.1c7.6,1.8,11.9,4.5,11.9,10.5c0,6.5-5.8,11.3-13.9,11.3c-5.1,0-12.1-1.6-13.9-2.7V77.7z"/>
	<path class="st2" d="M139.9,58c3.8,0,5.4,5.2,4.5,13.3h-9.9C134.8,63,136.4,58,139.9,58z M155,72.7c0.5-9.6-4.8-16.1-14.7-16.1
		c-9.4,0-16.9,6.3-16.9,17.2c0,10.6,6.9,16.2,17,16.2c6.8,0,11.3-3,14.5-8.1l-0.7-0.5c-2.6,3.5-5.3,5.5-9.4,5.5
		c-6.6,0-10.2-4.4-10.2-13.1v-1.1H155z"/>
</g>
</svg>
