<?xml version="1.0" encoding="UTF-8"?>
<svg
  version="1.1"
  xmlns="http://www.w3.org/2000/svg"
  width="250"
  viewBox="293 98 2523 1260"
  preserveAspectRatio="xMidYMid meet"
>
  <path d="M0 0 C185.46 0 370.92 0 562 0 C562 415.8 562 831.6 562 1260 C324.07 1260 86.14 1260 -159 1260 C-159 1169.58 -159 1079.16 -159 986 C-29.31 986 100.38 986 234 986 C234 753.35 234 520.7 234 281 C156.78 281 79.56 281 0 281 C0 188.27 0 95.54 0 0 Z " fill="#D76D4A" transform="translate(293,98)"/>
  <path d="M0 0 C108.57 0 217.14 0 329 0 C329 325.38 329 650.76 329 986 C458.69 986 588.38 986 722 986 C722 1076.42 722 1166.84 722 1260 C483.74 1260 245.48 1260 0 1260 C0 844.2 0 428.4 0 0 Z " fill="#803460" transform="translate(2094,98)"/>
  <path d="M0 0 C198.99 0 397.98 0 603 0 C603 254.43 603 508.86 603 771 C598.75687707 769.58562569 597.13754961 766.44073064 594.625 762.9375 C590.39543048 757.16141304 586.0554957 751.52266459 581.5 746 C577.19279098 740.76359677 573.03410009 735.44956213 569 730 C564.40001321 723.78781142 559.61277965 717.76212517 554.71264648 711.78466797 C550.15111146 706.2130251 545.75536548 700.5336895 541.38671875 694.80908203 C538.6301016 691.21286142 535.8451248 687.63860911 533.0625 684.0625 C532.16156616 682.90451904 532.16156616 682.90451904 531.24243164 681.72314453 C527.23761216 676.57990748 523.21631403 671.44993548 519.18383789 666.32836914 C514.82991584 660.79415269 510.51128939 655.23267489 506.19140625 649.671875 C502.64109544 645.10386022 499.07906298 640.54551618 495.5 636 C491.31299655 630.68238137 487.15218198 625.34484789 483 620 C477.02685416 612.31203286 471.02319602 604.64878722 465 597 C458.36905089 588.57943414 451.7675038 580.13691374 445.19213867 571.67285156 C441.64161106 567.10448985 438.07931469 562.54583587 434.5 558 C430.31299655 552.68238137 426.15218198 547.34484789 422 542 C416.02685416 534.31203286 410.02319602 526.64878722 404 519 C397.36905089 510.57943414 390.7675038 502.13691374 384.19213867 493.67285156 C380.64161106 489.10448985 377.07931469 484.54583587 373.5 480 C369.31299655 474.68238137 365.15218198 469.34484789 361 464 C355.02685416 456.31203286 349.02319602 448.64878722 343 441 C336.36905089 432.57943414 329.7675038 424.13691374 323.19213867 415.67285156 C319.64161106 411.10448985 316.07931469 406.54583587 312.5 402 C308.31299655 396.68238137 304.15218198 391.34484789 300 386 C294.02685416 378.31203286 288.02319602 370.64878722 282 363 C275.36905089 354.57943414 268.7675038 346.13691374 262.19213867 337.67285156 C258.64161106 333.10448985 255.07931469 328.54583587 251.5 324 C247.31299655 318.68238137 243.15218198 313.34484789 239 308 C233.02685416 300.31203286 227.02319602 292.64878722 221 285 C214.36905089 276.57943414 207.7675038 268.13691374 201.19213867 259.67285156 C197.64161106 255.10448985 194.07931469 250.54583587 190.5 246 C185.70506529 239.91029064 180.94641301 233.79279083 176.19140625 227.671875 C172.64109544 223.10386022 169.07906298 218.54551618 165.5 214 C161.31299655 208.68238137 157.15218198 203.34484789 153 198 C147.02685416 190.31203286 141.02319602 182.64878722 135 175 C128.36905089 166.57943414 121.7675038 158.13691374 115.19213867 149.67285156 C111.64161106 145.10448985 108.07931469 140.54583587 104.5 136 C100.31299655 130.68238137 96.15218198 125.34484789 92 120 C86.02685416 112.31203286 80.02319602 104.64878722 74 97 C67.36905089 88.57943414 60.7675038 80.13691374 54.19213867 71.67285156 C50.64161106 67.10448985 47.07931469 62.54583587 43.5 58 C39.31299655 52.68238137 35.15218198 47.34484789 31 42 C26.78364957 36.57318397 22.55958786 31.15279985 18.3125 25.75 C17.87687744 25.19449463 17.44125488 24.63898926 16.99243164 24.06665039 C14.66070441 21.09659278 12.31272317 18.14093188 9.9453125 15.19921875 C9.44217529 14.56983398 8.93903809 13.94044922 8.4206543 13.29199219 C7.46096221 12.09202164 6.49657455 10.89578505 5.52661133 9.70410156 C2.93057153 6.44757667 1.58733069 3.96832673 0 0 Z " fill="#A54B5B" transform="translate(1165,98)"/>
  <path d="M0 0 C5.62811791 5.62811791 5.62811791 5.62811791 7.76171875 8.3125 C8.23552979 8.90619385 8.70934082 9.4998877 9.19750977 10.11157227 C9.68920654 10.73475342 10.18090332 11.35793457 10.6875 12 C11.21077881 12.65863037 11.73405762 13.31726074 12.27319336 13.99584961 C15.98892625 18.68546183 19.65311699 23.41346566 23.28881836 28.1652832 C26.24626201 32.02973099 29.23826985 35.86523368 32.25 39.6875 C36.52107668 45.10874665 40.76637071 50.54946072 45 56 C49.15210372 61.34490823 53.31299696 66.6823819 57.5 72 C62.29493471 78.08970936 67.05358699 84.20720917 71.80859375 90.328125 C75.35890456 94.89613978 78.92093702 99.45448382 82.5 104 C87.29493471 110.08970936 92.05358699 116.20720917 96.80859375 122.328125 C100.35890456 126.89613978 103.92093702 131.45448382 107.5 136 C112.29493471 142.08970936 117.05358699 148.20720917 121.80859375 154.328125 C125.35890456 158.89613978 128.92093702 163.45448382 132.5 168 C137.29493471 174.08970936 142.05358699 180.20720917 146.80859375 186.328125 C150.35890456 190.89613978 153.92093702 195.45448382 157.5 200 C162.29493471 206.08970936 167.05358699 212.20720917 171.80859375 218.328125 C175.35890456 222.89613978 178.92093702 227.45448382 182.5 232 C187.29493471 238.08970936 192.05358699 244.20720917 196.80859375 250.328125 C200.35890456 254.89613978 203.92093702 259.45448382 207.5 264 C212.29493471 270.08970936 217.05358699 276.20720917 221.80859375 282.328125 C225.35890456 286.89613978 228.92093702 291.45448382 232.5 296 C237.29493471 302.08970936 242.05358699 308.20720917 246.80859375 314.328125 C250.35890492 318.89614024 253.9209981 323.4544354 257.5 328 C264.64596467 337.07784108 271.72424735 346.20835724 278.81152344 355.33203125 C285.12704223 363.461255 291.44893135 371.58481513 297.81713867 379.67285156 C302.17070599 385.20668407 306.48903024 390.76773655 310.80859375 396.328125 C314.35890456 400.89613978 317.92093702 405.45448382 321.5 410 C326.29493471 416.08970936 331.05358699 422.20720917 335.80859375 428.328125 C339.35890456 432.89613978 342.92093702 437.45448382 346.5 442 C351.29493471 448.08970936 356.05358699 454.20720917 360.80859375 460.328125 C364.35890456 464.89613978 367.92093702 469.45448382 371.5 474 C376.29493471 480.08970936 381.05358699 486.20720917 385.80859375 492.328125 C389.35890456 496.89613978 392.92093702 501.45448382 396.5 506 C401.29493471 512.08970936 406.05358699 518.20720917 410.80859375 524.328125 C414.35890456 528.89613978 417.92093702 533.45448382 421.5 538 C426.29493471 544.08970936 431.05358699 550.20720917 435.80859375 556.328125 C439.35890456 560.89613978 442.92093702 565.45448382 446.5 570 C451.29493471 576.08970936 456.05358699 582.20720917 460.80859375 588.328125 C464.35890456 592.89613978 467.92093702 597.45448382 471.5 602 C476.29493471 608.08970936 481.05358699 614.20720917 485.80859375 620.328125 C489.35890456 624.89613978 492.92093702 629.45448382 496.5 634 C501.29493471 640.08970936 506.05358699 646.20720917 510.80859375 652.328125 C514.35890492 656.89614024 517.9209981 661.4544354 521.5 666 C528.64596467 675.07784108 535.72424735 684.20835724 542.81152344 693.33203125 C549.12704223 701.461255 555.44893135 709.58481513 561.81713867 717.67285156 C566.16943239 723.2050652 570.48736118 728.76383 574.80419922 734.32373047 C577.94975564 738.3726969 581.10788362 742.41086696 584.2878418 746.43286133 C588.82443809 752.17380508 593.28453324 757.9683258 597.6875 763.8125 C598.21746582 764.5132666 598.74743164 765.2140332 599.29345703 765.93603516 C603 770.88014684 603 770.88014684 603 772 C404.01 772 205.02 772 0 772 C0 517.24 0 262.48 0 0 Z " fill="#AF5159" transform="translate(1165,586)"/>
</svg>
