<svg width="32" height="32" viewBox="0 0 32 32" fill="none" xmlns="http://www.w3.org/2000/svg">
<path d="M28.7075 13.7074L22.7075 19.7074C22.5199 19.8951 22.2654 20.0005 22 20.0005C21.7346 20.0005 21.4801 19.8951 21.2925 19.7074C21.1049 19.5198 20.9994 19.2653 20.9994 18.9999C20.9994 18.7346 21.1049 18.4801 21.2925 18.2924L25.5863 13.9999H20.625C18.1858 13.9993 15.8156 14.8093 13.8871 16.3027C11.9585 17.7962 10.581 19.8882 9.97125 22.2499C9.90495 22.5069 9.73929 22.7269 9.51073 22.8617C9.28217 22.9965 9.00943 23.035 8.7525 22.9687C8.49557 22.9024 8.27551 22.7367 8.14071 22.5082C8.00592 22.2796 7.96745 22.0069 8.03375 21.7499C8.75327 18.9581 10.3809 16.4849 12.6605 14.7197C14.94 12.9546 17.7419 11.9978 20.625 11.9999H25.5888L21.2925 7.70745C21.1996 7.61454 21.1259 7.50424 21.0756 7.38284C21.0253 7.26145 20.9994 7.13134 20.9994 6.99995C20.9994 6.86855 21.0253 6.73844 21.0756 6.61705C21.1259 6.49566 21.1996 6.38536 21.2925 6.29245C21.4801 6.1048 21.7346 5.99939 22 5.99939C22.1314 5.99939 22.2615 6.02527 22.3829 6.07555C22.5043 6.12584 22.6146 6.19954 22.7075 6.29245L28.7075 12.2924C28.8005 12.3853 28.8742 12.4956 28.9246 12.617C28.9749 12.7384 29.0008 12.8685 29.0008 12.9999C29.0008 13.1314 28.9749 13.2615 28.9246 13.3829C28.8742 13.5043 28.8005 13.6146 28.7075 13.7074ZM24 25.9999H5V10.9999C5 10.7347 4.89464 10.4804 4.70711 10.2928C4.51957 10.1053 4.26522 9.99995 4 9.99995C3.73478 9.99995 3.48043 10.1053 3.29289 10.2928C3.10536 10.4804 3 10.7347 3 10.9999V26.9999C3 27.2652 3.10536 27.5195 3.29289 27.7071C3.48043 27.8946 3.73478 27.9999 4 27.9999H24C24.2652 27.9999 24.5196 27.8946 24.7071 27.7071C24.8946 27.5195 25 27.2652 25 26.9999C25 26.7347 24.8946 26.4804 24.7071 26.2928C24.5196 26.1053 24.2652 25.9999 24 25.9999Z" fill="#95EEFD"/>
</svg>
